<?xml version="1.0" encoding="utf-8"?>
<!-- Generator: Adobe Illustrator 27.0.1, SVG Export Plug-In . SVG Version: 6.00 Build 0)  -->
<svg version="1.1" xmlns="http://www.w3.org/2000/svg" xmlns:xlink="http://www.w3.org/1999/xlink" x="0px" y="0px"
	 viewBox="0 0 640 480" style="enable-background:new 0 0 640 480;" xml:space="preserve">
<style type="text/css">
	.st0{display:none;}
	.st1{display:inline;fill:#FFFFFF;stroke:#EA0000;stroke-miterlimit:10;}
	.st2{display:inline;fill:none;stroke:#EA0000;stroke-miterlimit:10;}
	.st3{display:inline;fill:none;}
	.st4{display:inline;fill:#5F5F5F;}
	.st5{fill:#5F5F5F;}
	.st6{fill:none;stroke:#5F5F5F;stroke-width:3;stroke-miterlimit:10;stroke-dasharray:12;}
</style>
<g id="Слой_1" class="st0">
	<circle class="st1" cx="320" cy="240" r="143.68"/>
	<line class="st2" x1="320" y1="24.41" x2="320" y2="168.22"/>
	<line class="st2" x1="535.59" y1="240" x2="391.78" y2="240"/>
	<line class="st2" x1="320" y1="311.78" x2="320" y2="455.59"/>
	<line class="st2" x1="248.22" y1="240" x2="104.41" y2="240"/>
</g>
<g id="Слой_2" class="st0">
	<path class="st3" d="M238.04,180.77c-5.32,31.06-9.55,62.3-13.77,93.53c-3.9,28.82-7.8,57.87-5.87,86.89"/>
	<polyline class="st4" points="278.89,48.66 361.11,48.66 361.11,100.74 278.89,86.45 	"/>
	<polygon class="st4" points="278.89,153.6 361.11,167.89 361.11,115.81 278.89,115.81 278.89,100.74 361.11,115.81 	"/>
	<polyline class="st4" points="278.89,115.81 278.89,153.6 361.11,115.81 	"/>
	<polygon class="st4" points="278.89,220.74 361.11,235.04 361.11,182.96 278.89,182.96 278.89,167.89 361.11,182.96 	"/>
	<polyline class="st4" points="278.89,182.96 278.89,220.74 361.11,182.96 	"/>
	<polygon class="st4" points="278.89,287.89 361.11,302.19 361.11,250.11 278.89,250.11 278.89,235.04 361.11,250.11 	"/>
	<polyline class="st4" points="278.89,250.11 278.89,287.89 361.11,250.11 	"/>
	<polygon class="st4" points="278.89,355.04 361.11,317.26 278.89,317.26 278.89,302.19 361.11,317.26 	"/>
	<polygon class="st4" points="278.89,317.26 278.89,355.04 278.89,355.04 278.89,373.43 320,404.06 361.11,370.87 	"/>
	<polyline class="st4" points="361.11,317.26 361.11,370.87 278.89,317.26 	"/>
</g>
<g id="Слой_3">
	<polygon class="st5" points="154.7,400.23 148.57,400.23 142.45,400.23 142.45,48.66 154.7,48.66 	"/>
	
		<rect x="312.11" y="-121" transform="matrix(6.123234e-17 -1 1 6.123234e-17 263.4468 373.0213)" class="st5" width="12.26" height="351.57"/>
	<path class="st6" d="M754.45,99.98"/>
	<path class="st6" d="M148.57,400.23"/>
	<polyline class="st6" points="148.57,393.34 487.89,393.34 487.89,54.79 	"/>
</g>
</svg>
