<?xml version="1.0" encoding="utf-8"?>
<!-- Generator: Adobe Illustrator 27.0.1, SVG Export Plug-In . SVG Version: 6.00 Build 0)  -->
<svg version="1.1" xmlns="http://www.w3.org/2000/svg" xmlns:xlink="http://www.w3.org/1999/xlink" x="0px" y="0px"
	 viewBox="0 0 200 200" style="enable-background:new 0 0 200 200;" xml:space="preserve">
<style type="text/css">
	.st0{display:none;}
	.st1{display:inline;}
	.st2{fill:#FFFFFF;}
	.st3{display:inline;fill:#FFFFFF;stroke:#000000;stroke-miterlimit:10;}
	.st4{display:inline;fill:none;stroke:#000000;stroke-miterlimit:10;}
	.st5{fill:none;}
	.st6{fill:#727272;}
	.st7{fill:#727272;stroke:#727272;stroke-width:7;stroke-miterlimit:10;stroke-dasharray:10;}
</style>
<g id="Слой_1" class="st0">
	<g class="st1">
		<circle class="st2" cx="100" cy="100" r="99.5"/>
		<path d="M100,1c54.59,0,99,44.41,99,99s-44.41,99-99,99S1,154.59,1,100S45.41,1,100,1 M100,0C44.77,0,0,44.77,0,100
			s44.77,100,100,100s100-44.77,100-100S155.23,0,100,0L100,0z"/>
	</g>
	<line class="st3" x1="200" y1="0" x2="0" y2="200"/>
	<line class="st3" x1="0" y1="0" x2="200" y2="200"/>
	<line class="st3" x1="0" y1="100" x2="200" y2="100"/>
	<line class="st3" x1="100" y1="0" x2="100" y2="200"/>
	<rect x="29.29" y="29.29" class="st4" width="141.42" height="141.42"/>
	<path class="st4" d="M170.5,100c0,38.94-31.56,70.5-70.5,70.5c-19.47,0-37.09-7.89-49.85-20.65C37.39,137.09,29.5,119.47,29.5,100
		s7.89-37.09,20.65-49.85S80.53,29.5,100,29.5C138.94,29.5,170.5,61.06,170.5,100z"/>
	<rect x="50.15" y="50.15" class="st4" width="99.7" height="99.7"/>
	<circle class="st4" cx="100" cy="100" r="49.5"/>
</g>
<g id="Слой_2" class="st0">
	<g id="Слой_2_00000108987835309963323170000008311339276156624301_" class="st1">
		<path class="st5" d="M63.48,78.21c-2.71,15.8-4.86,31.69-7.01,47.58c-1.98,14.66-3.97,29.44-2.99,44.2"/>
		<polygon class="st6" points="84.26,11 126.09,11 126.09,37.49 84.26,30.22 		"/>
		<polygon class="st6" points="84.26,64.39 126.09,71.65 126.09,45.16 84.26,45.16 84.26,37.49 126.09,45.16 		"/>
		<polygon class="st6" points="84.26,45.16 84.26,64.39 126.09,45.16 		"/>
		<polygon class="st6" points="84.26,98.54 126.09,105.82 126.09,79.32 84.26,79.32 84.26,71.65 126.09,79.32 		"/>
		<polygon class="st6" points="84.26,79.32 84.26,98.54 126.09,79.32 		"/>
		<polygon class="st6" points="84.26,132.7 126.09,139.98 126.09,113.48 84.26,113.48 84.26,105.82 126.09,113.48 		"/>
		<polygon class="st6" points="84.26,113.48 84.26,132.7 126.09,113.48 		"/>
		<polygon class="st6" points="84.26,166.86 126.09,147.64 84.26,147.64 84.26,139.98 126.09,147.64 		"/>
		<polygon class="st6" points="84.26,147.64 84.26,166.86 84.26,166.86 84.26,176.22 105.18,191.8 126.09,174.91 		"/>
		<polygon class="st6" points="126.09,147.64 126.09,174.91 84.26,147.64 		"/>
	</g>
</g>
<g id="Слой_3">
	<rect x="29" y="19" class="st6" width="153" height="5"/>
	<rect x="-45" y="93" transform="matrix(-1.836970e-16 1 -1 -1.836970e-16 127 64)" class="st6" width="153" height="5"/>
	<polygon class="st6" points="95,172 29,172 29,167 90,167 	"/>
	<polygon class="st6" points="177,80 177,19 182,19 182,85 	"/>
	<line class="st7" x1="92.5" y1="169.5" x2="179.5" y2="82.5"/>
</g>
</svg>
